<?xml version="1.0" encoding="utf-8"?>
<!-- Generator: Adobe Illustrator 27.3.1, SVG Export Plug-In . SVG Version: 6.00 Build 0)  -->
<svg version="1.1" id="Layer_1" xmlns="http://www.w3.org/2000/svg" xmlns:xlink="http://www.w3.org/1999/xlink" x="0px" y="0px"
	 viewBox="0 0 1956 851" style="enable-background:new 0 0 1956 851;" xml:space="preserve">
<style type="text/css">
	.st0{clip-path:url(#SVGID_00000084498989343450512440000007025326560990688393_);}
	.st1{fill:#5592D6;}
	.st2{fill:#033473;}
	.st3{fill:#FFFFFF;}
	.st4{clip-path:url(#SVGID_00000150801375988117978490000013184926033296458134_);}
	.st5{clip-path:url(#SVGID_00000030465223841324817760000013208714290475953842_);}
	.st6{clip-path:url(#SVGID_00000067216254695353180300000016205022248477543051_);}
</style>
<g>
	<defs>
		<rect id="SVGID_1_" x="-12.7" y="369.3" width="1007.1" height="553.8"/>
	</defs>
	<clipPath id="SVGID_00000126286360483437079180000017793591862057600189_">
		<use xlink:href="#SVGID_1_"  style="overflow:visible;"/>
	</clipPath>
	<g style="clip-path:url(#SVGID_00000126286360483437079180000017793591862057600189_);">
		<path class="st1" d="M699.2,505.4c-2.9-1.4-5-3.6-6.3-6.1c1.1,1.2,2.4,2.3,4,3.1c6,2.8,13.2,0.6,16.2-5c3-5.6,0.6-12.4-5.3-15.3
			c-1.6-0.8-3.3-1.2-5-1.2c2.9-0.5,6.1-0.2,9,1.2c6.9,3.3,9.6,11.2,6.1,17.6c-2,3.7-5.6,6.1-9.6,6.9
			C705.4,507.1,702.2,506.8,699.2,505.4z M-2.3,528.5H3v-6.8c0-0.7-0.5-1.2-1.3-1.5l-1.4-0.5l-1.4,0.5c-0.8,0.3-1.3,0.9-1.3,1.5
			V528.5z M10,528.5h5.3v-6.8c0-0.7-0.5-1.2-1.3-1.5l-1.4-0.5l-1.4,0.5c-0.8,0.3-1.3,0.9-1.3,1.5V528.5z M38.3,454.2H40v-7.7
			c0-0.7-0.2-1.4-0.4-1.8l-0.4-0.6l-0.4,0.6c-0.3,0.3-0.4,1-0.4,1.8V454.2z M42.7,454.2h5.8v-7.7c0-0.7-0.6-1.4-1.4-1.8l-1.5-0.6
			l-1.5,0.6c-0.9,0.3-1.4,1-1.4,1.8V454.2z M51.3,454.2H53v-7.7c0-0.7-0.2-1.4-0.4-1.8l-0.4-0.6l-0.5,0.6c-0.2,0.3-0.4,1-0.4,1.8
			V454.2z M117.3,454.4h2v-9.1c0-0.9-0.2-1.7-0.5-2.1l-0.5-0.7l-0.5,0.7c-0.3,0.4-0.5,1.2-0.5,2.1V454.4z M117.3,501h2v-9.1
			c0-0.9-0.2-1.7-0.5-2.1l-0.5-0.7l-0.5,0.7c-0.3,0.4-0.5,1.2-0.5,2.1V501z M122.5,454.4h6.7v-9.1c0-0.9-0.6-1.7-1.6-2.1l-1.7-0.7
			l-1.7,0.7c-1,0.4-1.6,1.2-1.6,2.1V454.4z M122.5,501h6.7v-9.1c0-0.9-0.6-1.7-1.6-2.1l-1.7-0.7l-1.7,0.7c-1,0.4-1.6,1.2-1.6,2.1
			V501z M132.4,454.4h2v-9.1c0-0.9-0.2-1.7-0.5-2.1l-0.5-0.7l-0.5,0.7c-0.3,0.4-0.5,1.2-0.5,2.1V454.4z M132.4,501h2v-9.1
			c0-0.9-0.2-1.7-0.5-2.1l-0.5-0.7l-0.5,0.7c-0.3,0.4-0.5,1.2-0.5,2.1V501z M317.4,663.5h2.7v-12.2c0-1.2-0.3-2.2-0.7-2.8l-0.7-0.9
			l-0.7,0.9c-0.4,0.5-0.7,1.6-0.7,2.8V663.5z M324.3,663.5h9.1v-12.2c0-1.2-0.8-2.2-2.2-2.8l-2.3-0.9l-2.3,0.9
			c-1.4,0.5-2.2,1.6-2.2,2.8V663.5z M337.7,663.5h2.7v-12.2c0-1.2-0.2-2.2-0.7-2.8l-0.7-0.9l-0.7,0.9c-0.4,0.5-0.7,1.6-0.7,2.8
			V663.5z M343.5,687.4h1.8c-1.5-4.8-2.2-10.1-1.4-15.8h-0.5V687.4z M354.4,534.9h2.7v-12.2c0-1.2-0.3-2.2-0.7-2.8l-0.7-0.9
			l-0.7,0.9c-0.4,0.5-0.7,1.6-0.7,2.8V534.9z M361.3,534.9h9.1v-12.2c0-1.2-0.8-2.2-2.2-2.8l-2.3-0.9l-2.3,0.9
			c-1.4,0.5-2.2,1.6-2.2,2.8V534.9z M374.7,534.9h2.7v-12.2c0-1.2-0.3-2.2-0.7-2.8L376,519l-0.7,0.9c-0.4,0.5-0.7,1.6-0.7,2.8V534.9
			z M431.9,611.8h3.8v-17c0-1.6-0.4-3.1-0.9-3.9l-1-1.3l-1,1.3c-0.6,0.7-0.9,2.2-0.9,3.9V611.8z M441.6,611.8h12.6v-17
			c0-1.6-1.2-3.1-3.1-3.9l-3.2-1.3l-3.3,1.3c-1.9,0.7-3.1,2.2-3.1,3.9V611.8z M460.2,611.8h3.8v-17c0-1.6-0.3-3.1-0.9-3.9l-1-1.3
			l-1,1.3c-0.6,0.7-0.9,2.2-0.9,3.9V611.8z M500.9,631.2h1v-4.3c0-0.4-0.1-0.8-0.2-1l-0.3-0.3l-0.2,0.3c-0.2,0.2-0.2,0.6-0.2,1
			V631.2z M503.3,631.2h3.2v-4.3c0-0.4-0.3-0.8-0.8-1l-0.8-0.3l-0.8,0.3c-0.5,0.2-0.8,0.6-0.8,1V631.2z M508.1,631.2h1v-4.3
			c0-0.4-0.1-0.8-0.2-1l-0.2-0.3l-0.3,0.3c-0.1,0.2-0.2,0.6-0.2,1V631.2z M594.2,679.2l4,3.7h2.8v-14.5c-4,6.7-9.6,10.8-9.6,10.8
			H594.2z M603.7,681.1h2.3v-10.2c0-1-0.2-1.9-0.6-2.3l-0.6-0.8l-0.6,0.8c-0.3,0.4-0.6,1.3-0.6,2.3V681.1z M609.6,681.1h7.6v-10.2
			c0-1-0.7-1.9-1.9-2.3l-2-0.8l-2,0.8c-1.1,0.4-1.8,1.3-1.8,2.3V681.1z M620.9,681.1h2.3v-10.2c0-1-0.2-1.9-0.5-2.3l-0.6-0.8
			l-0.6,0.8c-0.3,0.4-0.6,1.3-0.6,2.3V681.1z M625.3,654.3c-0.3,2.4-1.8,4.4-2.9,5.6h2.9V654.3z M627.2,596.3h1.7v-7.5
			c0-0.7-0.2-1.4-0.4-1.7l-0.4-0.6l-0.4,0.6c-0.3,0.3-0.4,1-0.4,1.7V596.3z M631.5,596.3h5.6v-7.5c0-0.7-0.5-1.4-1.3-1.7l-1.4-0.6
			l-1.4,0.6c-0.8,0.3-1.4,1-1.4,1.7V596.3z M639.7,596.3h1.7v-7.5c0-0.7-0.2-1.4-0.4-1.7l-0.4-0.6l-0.4,0.6c-0.3,0.3-0.4,1-0.4,1.7
			V596.3z M643.3,640.3h10.9c-4.4-6.1-8.3-13.9-9.5-22.8l-0.7,0.6h-0.8V640.3z M674.7,641.9h5.3v-6.8c0-0.6-0.5-1.2-1.3-1.5
			l-1.4-0.5l-1.4,0.5c-0.8,0.3-1.3,0.9-1.3,1.5V641.9z M687.1,641.9h5.3v-6.8c0-0.6-0.5-1.2-1.3-1.5l-1.4-0.5l-1.4,0.5
			c-0.8,0.3-1.3,0.9-1.3,1.5V641.9z M699.5,641.9h5.3v-6.8c0-0.6-0.5-1.2-1.3-1.5l-1.4-0.5l-1.4,0.5c-0.8,0.3-1.3,0.9-1.3,1.5V641.9
			z M711.9,641.9h5.3v-6.8c0-0.6-0.5-1.2-1.3-1.5l-1.4-0.5l-1.4,0.5c-0.8,0.3-1.3,0.9-1.3,1.5V641.9z M724.3,641.9h5.3v-6.8
			c0-0.6-0.5-1.2-1.3-1.5l-1.4-0.5l-1.4,0.5c-0.8,0.3-1.3,0.9-1.3,1.5V641.9z M736.7,641.9h5.3v-6.8c0-0.6-0.5-1.2-1.3-1.5l-1.4-0.5
			l-1.4,0.5c-0.8,0.3-1.3,0.9-1.3,1.5V641.9z M764.9,567.6h1.8v-7.7c0-0.7-0.2-1.4-0.4-1.8l-0.4-0.6l-0.4,0.6
			c-0.3,0.3-0.4,1-0.4,1.8V567.6z M769.4,567.6h5.8v-7.7c0-0.7-0.5-1.4-1.4-1.8l-1.5-0.6l-1.5,0.6c-0.9,0.3-1.4,1-1.4,1.8V567.6z
			 M777.9,567.6h1.7v-7.7c0-0.7-0.2-1.4-0.4-1.8l-0.4-0.6l-0.4,0.6c-0.3,0.3-0.4,1-0.4,1.8V567.6z M844,567.8h2v-9.1
			c0-0.9-0.2-1.7-0.5-2.1L845,556l-0.5,0.7c-0.3,0.4-0.5,1.2-0.5,2.1V567.8z M844,614.4h2v-9.1c0-0.9-0.2-1.7-0.5-2.1l-0.5-0.7
			l-0.5,0.7c-0.3,0.4-0.5,1.2-0.5,2.1V614.4z M849.2,567.8h6.7v-9.1c0-0.9-0.6-1.7-1.6-2.1l-1.7-0.7l-1.7,0.7
			c-1,0.4-1.6,1.2-1.6,2.1V567.8z M849.2,614.4h6.7v-9.1c0-0.9-0.6-1.7-1.6-2.1l-1.7-0.7l-1.7,0.7c-1,0.4-1.6,1.2-1.6,2.1V614.4z
			 M859.1,567.8h2v-9.1c0-0.9-0.2-1.7-0.5-2.1l-0.5-0.7l-0.5,0.7c-0.3,0.4-0.5,1.2-0.5,2.1V567.8z M859.1,614.4h2v-9.1
			c0-0.9-0.2-1.7-0.5-2.1l-0.5-0.7l-0.5,0.7c-0.3,0.4-0.5,1.2-0.5,2.1V614.4z M-1.8,448.4c12.3,9,28.1,13.3,38.1,24.5v-13.6h-0.8
			l-1.5-1.4v-2.3h2.3v-12.9l-1.1-1v-2.1l-0.8-1.4h4.5c-1.3-1.4-3-3.9-1.9-7c1.1-3,4.1-3.5,6.4-5.1c0.7-0.5,1.3-1,1.8-1.8l-0.9-0.8
			l1.2-1.1l-0.3-0.3l0.5-0.4v-2.4l-0.5-0.4l0.5-0.5l0.5,0.5l-0.4,0.4v2.4l0.4,0.4l-0.3,0.3l1.2,1.1l-0.9,0.8
			c0.5,0.8,1.2,1.4,1.8,1.8c2.2,1.7,5.3,2.2,6.4,5.1c1.1,3.1-0.7,5.7-1.9,7h4.5l-0.8,1.4v2.1l-1.1,1v12.9h2.3v2.3l-1.5,1.4H55v28
			c3.5-1.9,7.2-3.6,10.4-5.9c2.2-1.6,4.5-3.3,6-6l-2.9-2.7l3.8-3.6l-1.1-1l1.2-1.2V454l-1.2-1.2l1.7-1.6l1.7,1.6l-1.2,1.2v12.8
			l1.2,1.2l-1.1,1l3.8,3.6l-2.9,2.7c1.6,2.8,3.8,4.4,6,6c7.4,5.4,17.5,7.1,20.9,16.8c5.4,15.2-10.1,26.4-10.1,26.4h2.3l2.4,2.3h8.6
			v7.9h-2.7v3.9h-2.6v15.1c1.2-0.6,2.3-1.3,3.4-2c1.3-0.9,2.6-1.9,3.6-3.6l-1.7-1.6l2.2-2.1l-0.6-0.6l1-1l1,1l-0.6,0.6l2.3,2.1
			l-1.7,1.6c0.9,1.6,2.3,2.6,3.6,3.6c1,0.7,2.1,1.3,3.2,1.9V508h-0.9l-1.8-1.7v-2.7h2.7v-25h-0.9l-1.8-1.7v-2.7h2.7v-13.9h-0.9
			l-1.8-1.7V456h2.7v-15.1l-1.2-1.2v-2.5l-1-1.7h5.3c-1.5-1.6-3.5-4.6-2.2-8.2c1.2-3.5,4.8-4.1,7.4-6c0.8-0.6,1.6-1.2,2.1-2.2l-1-1
			l1.3-1.3l-0.4-0.4l0.5-0.5v-2.8l-0.5-0.5l0.6-0.6l0.6,0.6l-0.5,0.5v2.8l0.5,0.5l-0.4,0.4l1.3,1.3l-1,1c0.6,1,1.4,1.6,2.1,2.2
			c2.6,1.9,6.2,2.5,7.4,6c1.3,3.6-0.8,6.6-2.3,8.2h5.3l-1,1.7v2.5l-1.2,1.2V456h2.7v2.7l-1.8,1.7h-0.9v13.9h2.7v2.7l-1.8,1.7h-0.9
			v25h2.7v2.7l-1.8,1.7h-0.9v34c8.5-10.6,22.9-14.2,33.9-22.3c4.1-3,8.3-6.1,11.2-11.2l-5.3-5l7.1-6.7l-2-1.9l2.1-2
			c0.1-2.6,0.6-12.4,1.1-12.4c0.6,0,1.1,9.8,1.1,12.4l2.1,2l-2,1.9l7.1,6.7l-5.3,5c2.9,5.2,7.2,8.3,11.2,11.2
			c9.6,7,21.7,10.7,30.3,18.5c0.3-0.2,0.5-0.3,0.7-0.5c0.7-0.5,1.4-1,1.8-1.8L231,535l1.2-1.1l-0.3-0.3l0.5-0.4v-2.4l-0.5-0.4
			l0.5-0.5l0.5,0.5l-0.5,0.4v2.4l0.5,0.4l-0.3,0.3l1.2,1.1l-0.9,0.8c0.5,0.8,1.2,1.4,1.8,1.8c2.2,1.7,5.3,2.2,6.3,5.1
			c1.1,3.1-0.7,5.7-1.9,7h4.5l-0.8,1.4v1.2c0.6-0.3,1.1-0.7,1.6-1.1c1.7-1.2,3.4-2.5,4.7-4.6l-2.2-2.1l2.9-2.8l-0.8-0.8l0.9-0.8
			c0-1.1,0.2-5.1,0.5-5.1c0.2,0,0.4,4.1,0.5,5.1l0.9,0.8l-0.8,0.8l2.9,2.8l-2.2,2.1c1.2,2.1,3,3.4,4.7,4.6c3.6,2.6,8.1,4.1,11.5,6.8
			v25l0.1,0.1l-0.1,0.1v12.8l0.1,0.1l-0.1,0.1v1.6l2.4,2.3l-2.4,2.3v0.1c1.3,2.4,3.3,3.8,5.1,5.1c6.3,4.6,15,6.1,18,14.5
			c2.7,7.6-0.7,14.1-4,18.1H298v7.9h-2.7v3.9h-2.6v27.6c2.1-1.6,4.8-2.5,7-4.1c1-0.7,2.1-1.5,2.8-2.8l-1.3-1.3l1.8-1.7l-0.5-0.5
			l0.8-0.8l0.8,0.8l-0.5,0.5l1.8,1.7l-1.3,1.3c0.7,1.3,1.8,2.1,2.8,2.8c2.4,1.7,5.4,2.7,7.5,4.6v-8.6H313l-2.4-2.3v-3.6h3.6v-20.4
			l-1.7-1.6v-3.3l-1.3-2.3h7.1c-2-2.1-4.7-6.2-3-11.1c1.6-4.7,6.5-5.5,10-8.1c1-0.8,2.1-1.6,2.9-2.9l-1.4-1.3l1.8-1.7l-0.5-0.5
			l0.7-0.7v-3.8l-0.7-0.7l0.8-0.8l0.8,0.8l-0.7,0.7v3.8l0.7,0.7l-0.5,0.5l1.8,1.7l-1.4,1.3c0.7,1.3,1.8,2.1,2.9,2.9
			c3.5,2.6,8.3,3.4,10,8.1c1.7,4.9-1.1,8.9-3,11.1h7.1l-1.3,2.3v3.3l-1.7,1.6v20.4h1.8c0.2-0.4,0.3-0.9,0.4-1.3
			c1.3-3.8,3.2-6.9,5.5-9.6v-84.4H350l-2.4-2.3v-3.6h3.7V543H350l-2.4-2.3v-3.6h3.7v-20.4l-1.7-1.6v-3.3l-1.3-2.3h7.1
			c-2-2.1-4.7-6.2-3-11.1c1.6-4.7,6.5-5.5,10-8.1c1-0.8,2.1-1.6,2.9-2.9l-1.4-1.3l1.8-1.7l-0.5-0.5l0.7-0.7v-3.8l-0.7-0.7l0.8-0.8
			l0.8,0.8l-0.7,0.7v3.8l0.7,0.7l-0.5,0.5l1.8,1.7l-0.1,0.1l-1.3,1.2c0.8,1.3,1.8,2.1,2.9,2.9c3.5,2.6,8.3,3.4,10,8.1
			c1.7,4.9-1,8.9-3,11.1h7.1l-1.3,2.3v3.3l-1.7,1.6v20.4h3.7v3.6l-2.4,2.3h-1.3v21.6h3.7v3.6l-2.4,2.3h-1.3v65.4
			c1.4-0.9,2.8-1.8,4.2-2.8c4.1-3,8.3-6.1,11.2-11.2l-5.3-5l7.1-6.7l-2-1.9l2.1-2c0.1-2.6,0.6-12.4,1.1-12.4c0.6,0,1,9.8,1.1,12.4
			l2.1,2l-2,1.9l7.1,6.7l-5.3,5c2.9,5.2,7.2,8.3,11.2,11.2c4.5,3.3,9.5,5.8,14.5,8.4v-18.4h-1.7l-3.3-3.2v-5h5.1v-28.4l-2.3-2.2
			v-4.6l-1.8-3.2h9.9c-2.8-3-6.6-8.6-4.2-15.4c2.3-6.5,9-7.7,13.9-11.3c1.4-1.1,2.9-2.2,4-4l-1.9-1.8l2.5-2.4l-0.7-0.7l1-0.9v-5.2
			l-1-0.9l1.2-1.1l1.2,1.1l-1,0.9v5.2l1,0.9l-0.7,0.7l2.5,2.4l-1.9,1.8c1.1,1.9,2.6,3,4,4c4.9,3.6,11.6,4.8,13.9,11.3
			c2.4,6.8-1.4,12.5-4.2,15.4h9.9l-1.8,3.2v4.6l-2.3,2.2v28.4h5.1v5l-3.3,3.2h-1.7v30.1h5.1v0.1c1.4-1,2.7-2.1,3.7-3.9l-2.1-2
			l2.8-2.6l-0.8-0.7l1.2-1.2l1.3,1.2l-0.8,0.7l2.8,2.6l-2.1,2c1.2,2,2.8,3.2,4.4,4.4c5.4,3.9,12.7,5.2,15.3,12.3c0.3,1,0.6,2,0.7,3
			v-25.3h-0.4l-0.9-0.8v-1.3h1.3V634h-0.4l-0.9-0.8v-1.3h1.3v-7l-0.6-0.5l-0.1-1.2l0.2,0l-0.6-1h2.5c-0.7-0.8-1.7-2.2-1.1-3.9
			c0.6-1.7,2.3-1.9,3.5-2.9c0.4-0.3,0.7-0.6,1-1l-0.5-0.4l0.6-0.6l-0.2-0.2l0.2-0.2v-1.3l-0.2-0.2l0.3-0.3l0.3,0.3l-0.2,0.2v1.3
			l0.2,0.2l-0.2,0.2l0.6,0.6l-0.5,0.4c0.3,0.5,0.7,0.8,1,1c1.2,0.9,3,1.2,3.5,2.9c0.6,1.7-0.4,3.2-1.1,3.9h2.5l-0.5,0.9l0,0.8
			l-0.6,0.6v7.4h1.3v1.3l-0.8,0.8h-0.4v7.6h1.3v1.3l-0.8,0.8h-0.4v22.7c0.2-0.1,0.3-0.2,0.5-0.3c3.6-2.7,7.4-5.4,10-10.1l-4.8-4.5
			l6.3-6l-1.8-1.7l1.9-1.8c0.1-2.3,0.5-11.1,1-11.1c0.5,0,0.9,8.8,1,11.1l1.9,1.8l-1.8,1.7l6.3,6l-4.8,4.5c2.6,4.6,6.4,7.4,10,10
			c-2.5-5.2-3.8-11.7-1.3-18.9c4.2-11.8,16.4-13.9,25.3-20.4c2.6-1.9,5.4-3.9,7.3-7.3l-3.5-3.3l4.6-4.3l-1.3-1.2l2.1-2l2.1,2
			l-1.3,1.2l4.6,4.3l-3.5,3.3c1.9,3.4,4.6,5.4,7.3,7.3c8.9,6.5,21.2,8.6,25.3,20.4c0.1,0.2,0.1,0.4,0.2,0.6c1.9-1.6,4.4-2.4,6.5-3.9
			c0.9-0.7,1.8-1.3,2.4-2.4l-1.2-1.1l1.5-1.4l-0.4-0.4l0.6-0.6v-3.2l-0.6-0.6l0.7-0.7l0.7,0.7l-0.6,0.6v3.2l0.6,0.6l-0.4,0.4
			l1.5,1.4l-1.1,1.1c0.6,1.1,1.5,1.8,2.4,2.4c2.9,2.2,7,2.9,8.4,6.8c0.2,0.5,0.3,1,0.4,1.6v-34.1h-0.8l-1.5-1.4v-2.2h2.2v-13.2h-0.8
			l-1.5-1.4v-2.2h2.2v-12.1l-1-0.8l-0.1-2.1l0.3,0l-1-1.8h4.3c-1.2-1.3-2.9-3.8-1.8-6.8c1-2.9,4-3.4,6.1-5c0.6-0.5,1.3-1,1.8-1.8
			l-0.8-0.8l1.1-1.1l-0.3-0.3l0.4-0.4v-2.3l-0.4-0.4l0.5-0.5l0.5,0.5l-0.4,0.4v2.3l0.4,0.4l-0.3,0.3l1.1,1.1l-0.8,0.8
			c0.5,0.8,1.1,1.3,1.8,1.8c2.2,1.6,5.1,2.1,6.1,5c1,3-0.6,5.5-1.9,6.8h4.3l-0.9,1.5l0.1,1.4l-1,1.1v12.8h2.2v2.2l-1.5,1.4h-0.8
			v13.2h1.1c-0.3-5.1,0.4-10.6,2.4-16.3c7.4-21,29.3-24.7,45.1-36.3c4.7-3.5,9.6-7,13-13l-6.2-5.8l8.2-7.7l-2.4-2.2l3.2-3.1v-16.9
			l-3.2-3.1l3.7-3.5l3.7,3.5l-3.2,3.1V530l3.2,3.1l-2.3,2.2l8.2,7.7l-6.2,5.8c3.4,6,8.3,9.6,13,13c12.3,9,28.1,13.3,38.1,24.5v-13.6
			h-0.8l-1.5-1.4V569h2.3v-12.9l-1.1-1V553l-0.8-1.4h4.5c-1.3-1.4-3-3.9-1.9-7c1.1-3,4.1-3.5,6.4-5.1c0.7-0.5,1.4-1,1.8-1.8
			l-0.9-0.8l1.2-1.1l-0.3-0.3l0.5-0.4v-2.4l-0.5-0.4l0.5-0.5l0.5,0.5l-0.5,0.4v2.4l0.5,0.4l-0.3,0.3l1.2,1.1l-0.9,0.8
			c0.5,0.8,1.2,1.4,1.8,1.8c2.2,1.7,5.3,2.2,6.4,5.1c1.1,3.1-0.7,5.7-1.9,7h4.5l-0.8,1.4v2.1l-1.1,1V569h2.3v2.3l-1.5,1.4h-0.8v28
			c3.5-1.9,7.2-3.6,10.4-5.9c2.2-1.6,4.5-3.3,6-6l-2.9-2.7l3.8-3.6l-1.1-1l1.2-1.2v-12.8l-1.2-1.2l1.7-1.6l1.7,1.6l-1.2,1.2v12.8
			l1.2,1.2l-1.1,1l3.8,3.6l-2.9,2.7c1.6,2.8,3.8,4.4,6,6c7.4,5.4,17.5,7.1,20.9,16.8c5.4,15.2-10.1,26.5-10.1,26.5h2.3l2.4,2.3h8.6
			v7.9h-2.7v3.9h-2.6v15.1c1.2-0.6,2.3-1.3,3.4-2c1.3-0.9,2.6-1.9,3.6-3.6l-1.7-1.6l2.2-2.1l-0.6-0.6l1-1l1,1l-0.6,0.6l2.2,2.1
			l-1.7,1.6c0.9,1.6,2.3,2.6,3.5,3.6c1,0.7,2.1,1.3,3.2,1.9v-45.7h-0.9l-1.8-1.7V617h2.7v-25h-0.9l-1.8-1.7v-2.7h2.7v-13.9h-0.9
			l-1.8-1.7v-2.7h2.7v-15.1l-1.2-1.2v-2.5l-1-1.7h5.2c-1.5-1.6-3.5-4.6-2.2-8.2c1.2-3.5,4.8-4.1,7.4-6c0.8-0.6,1.6-1.2,2.1-2.2l-1-1
			l1.3-1.3l-0.4-0.4l0.5-0.5v-2.8l-0.5-0.5l0.6-0.6l0.6,0.6l-0.5,0.5v2.8l0.5,0.5l-0.4,0.4l1.3,1.3l-1,1c0.6,1,1.4,1.6,2.1,2.2
			c2.6,1.9,6.2,2.5,7.4,6c1.3,3.6-0.8,6.6-2.3,8.2h5.3l-1,1.7v2.5l-1.2,1.2v15.1h2.7v2.7l-1.8,1.7h-0.9v13.9h2.7v2.7l-1.8,1.7h-0.9
			v25h2.7v2.7l-1.8,1.7h-0.9v34c8.5-10.6,22.9-14.2,33.9-22.3c4.1-3,8.3-6.1,11.2-11.2l-5.3-5l7.1-6.7l-2-1.9l2.1-2
			c0.1-2.6,0.6-12.4,1.1-12.4c0.6,0,1,9.8,1.1,12.4l2.1,2l-2,1.9l7.1,6.7l-5.3,5c2.9,5.2,7.2,8.3,11.2,11.2
			c13.7,10.1,32.5,13.2,38.9,31.3c0.4,1.2,0.8,2.4,1.1,3.6c1.9-1,3.7-1.9,5.4-3.2c1.7-1.2,3.4-2.5,4.6-4.6l-2.2-2.1l2.9-2.8
			l-0.8-0.8l0.9-0.8c0-1.1,0.2-5.1,0.5-5.1c0.2,0,0.4,4.1,0.5,5.1l0.9,0.8l-0.8,0.8l2.9,2.8l-2.2,2.1c1.2,2.1,3,3.4,4.6,4.6
			c3.6,2.6,8.1,4.1,11.5,6.8v251.5h-1007V528.5h3.3v-6.8c0-0.7-0.5-1.2-1.3-1.5l-1.4-0.5l-0.6,0.2v-81.3
			C-9.6,442.7-5.6,445.6-1.8,448.4z M-12.7,369.8c5.3,3.7,7.2,10.7,4.1,16.4c-1,1.9-2.4,3.4-4.1,4.6v-8.7c0.7-2.2,0.7-4.6,0-6.7
			V369.8z M-12.7,433.4v-7.6l4.1,3.8L-12.7,433.4"/>
	</g>
</g>
<path class="st2" d="M1436.4,408.7l-3.8-7h45.5l-3.8,7V724h-37.8V408.7"/>
<path class="st3" d="M1441.3,415.8l0.9-1.3l0.9,1.3c0.5,0.7,0.9,2.2,0.9,3.8v16.6h-3.5v-16.6C1440.5,418,1440.8,416.5,1441.3,415.8z
	 M1468.4,414.5l0.9,1.3c0.5,0.7,0.9,2.2,0.9,3.8v16.6h-3.5v-16.6c0-1.6,0.3-3.1,0.9-3.8L1468.4,414.5z M1452.3,415.8l3-1.3l3,1.3
	c1.7,0.7,2.8,2.2,2.8,3.8v16.6h-11.7v-16.6C1449.5,418,1450.6,416.5,1452.3,415.8"/>
<path class="st2" d="M1466.7,404h5.1v5.1h-33V404h5.1c0,0-9.5-7.3-6.2-17.3c2.1-6.4,8.3-7.5,12.9-11c1.9-1.5,4-3.1,4.7-6.8
	c0.7,3.7,2.8,5.3,4.7,6.8c4.5,3.5,10.7,4.6,12.9,11C1476.2,396.6,1466.7,404,1466.7,404"/>
<path class="st2" d="M1436.7,411.8h37.3l2.4-2.4v-4.7h-42.1v4.7L1436.7,411.8"/>
<path class="st2" d="M1434.8,447.1h41l3.1-3.1v-4.9h-47.2v4.9L1434.8,447.1"/>
<path class="st2" d="M1434.8,539.1h41l3.1-3.1v-4.9h-47.2v4.9L1434.8,539.1"/>
<path class="st2" d="M1452.6,370l2.7,2.7l2.7-2.7l-2.7-2.7L1452.6,370"/>
<path class="st2" d="M1454.3,367l1.1,1.1l1.1-1.1l-1.1-1.1L1454.3,367"/>
<path class="st2" d="M1454.3,360l1.1,1.1l1.1-1.1l-1.1-1.1L1454.3,360"/>
<path class="st2" d="M1455.2,367h0.3v-6.5h-0.3V367"/>
<path class="st2" d="M1343.5,255.8l-7.2-13.1h85.3l-7.2,13.1v406.8h-70.8V255.8"/>
<path class="st3" d="M1352.6,269.1l1.7-2.4l1.7,2.4c1,1.4,1.6,4.1,1.6,7.1v31.1h-6.6v-31.1C1351,273.2,1351.6,270.5,1352.6,269.1z
	 M1403.4,266.7l1.7,2.4c1,1.4,1.6,4.1,1.6,7.1v31.1h-6.6v-31.1c0-3,0.6-5.7,1.6-7.1L1403.4,266.7z M1373.2,269.1l5.6-2.4l5.6,2.4
	c3.3,1.4,5.3,4.1,5.3,7.1v31.1h-21.9v-31.1C1367.9,273.2,1370,270.5,1373.2,269.1"/>
<path class="st2" d="M1400.1,246.9h9.6v9.5H1348v-9.5h9.6c0,0-17.8-13.8-11.6-32.4c4-11.9,15.6-14,24.1-20.6
	c3.6-2.8,7.4-5.8,8.8-12.7c1.3,7,5.2,9.9,8.8,12.7c8.5,6.6,20.1,8.7,24.1,20.6C1417.9,233.1,1400.1,246.9,1400.1,246.9"/>
<path class="st2" d="M1344,261.5h69.8l4.5-4.5v-8.8h-78.9v8.8L1344,261.5"/>
<path class="st2" d="M1340.4,327.8h76.9l5.8-5.8v-9.1h-88.5v9.1L1340.4,327.8"/>
<path class="st2" d="M1340.4,397.7h76.9l5.8-5.8v-9.1h-88.5v9.1L1340.4,397.7"/>
<path class="st2" d="M1340.4,477.9h76.9l5.8-5.8V463h-88.5v9.1L1340.4,477.9"/>
<path class="st2" d="M1373.7,183.2l5.1,5.1l5.1-5.1l-5.1-5.1L1373.7,183.2"/>
<path class="st2" d="M1376.9,177.6l2,2l2-2l-2-2L1376.9,177.6"/>
<path class="st2" d="M1376.9,164.5l2,2l2-2l-2-2L1376.9,164.5"/>
<path class="st2" d="M1378.6,177.6h0.5v-12.2h-0.5V177.6"/>
<path class="st2" d="M1136.9,369.9l-0.9-1.7c-0.6-1.1,0.2-2.4,1.4-2.4h23.9c1.2,0,2,1.3,1.4,2.4l-1,1.7c-0.1,0.2-0.2,0.5-0.2,0.8
	v299.1h-24.4V370.7C1137.1,370.4,1137.1,370.1,1136.9,369.9"/>
<path class="st3" d="M1140.3,374.9l0.6-0.8l0.6,0.8c0.3,0.5,0.6,1.4,0.6,2.5v10.8h-2.3v-10.8C1139.8,376.3,1140,375.4,1140.3,374.9z
	 M1157.8,374.1l0.6,0.8c0.3,0.5,0.6,1.4,0.6,2.5v10.8h-2.3v-10.8c0-1,0.2-2,0.6-2.5L1157.8,374.1z M1147.4,374.9l1.9-0.8l1.9,0.8
	c1.1,0.5,1.8,1.4,1.8,2.5v9.2c0,0.9-0.7,1.6-1.6,1.6h-4.3c-0.9,0-1.6-0.7-1.6-1.6v-9.2C1145.6,376.3,1146.3,375.4,1147.4,374.9"/>
<path class="st2" d="M1156.7,367.2h1.7c0.9,0,1.6,0.7,1.6,1.7c0,0.9-0.7,1.6-1.6,1.6h-18c-0.9,0-1.6-0.7-1.6-1.6
	c0-0.9,0.7-1.7,1.6-1.7h1.7c0,0-6.1-4.8-4-11.3c1.4-4.1,5.4-4.9,8.3-7.2c0.6-0.5,1.2-1,1.8-1.7c0.6-0.8,1.8-0.8,2.5,0
	c0.5,0.7,1.2,1.2,1.8,1.7c2.9,2.3,6.9,3,8.3,7.2C1162.8,362.4,1156.7,367.2,1156.7,367.2"/>
<path class="st2" d="M1138,372.3h22.7c0.4,0,0.9-0.2,1.2-0.5l0.6-0.6c0.3-0.3,0.5-0.7,0.5-1.2v-0.7c0-0.9-0.7-1.6-1.7-1.6h-23.9
	c-0.9,0-1.7,0.7-1.7,1.6v0.7c0,0.4,0.2,0.8,0.5,1.2l0.6,0.6C1137.1,372.1,1137.6,372.3,1138,372.3"/>
<path class="st2" d="M1136.8,395.3h25.1c0.4,0,0.9-0.2,1.2-0.5l1-1.1c0.3-0.3,0.5-0.7,0.5-1.2v-0.8c0-0.9-0.7-1.6-1.7-1.6h-27.2
	c-0.9,0-1.7,0.7-1.7,1.6v0.8c0,0.4,0.2,0.9,0.5,1.2l1,1.1C1135.9,395.1,1136.4,395.3,1136.8,395.3"/>
<path class="st2" d="M1136.8,419.6h25.1c0.4,0,0.9-0.2,1.2-0.5l1-1.1c0.3-0.3,0.5-0.7,0.5-1.2v-0.8c0-0.9-0.7-1.7-1.7-1.7h-27.2
	c-0.9,0-1.7,0.7-1.7,1.7v0.8c0,0.4,0.2,0.9,0.5,1.2l1,1.1C1135.9,419.4,1136.4,419.6,1136.8,419.6"/>
<path class="st2" d="M1136.8,463h25.1c0.4,0,0.9-0.2,1.2-0.5l1-1c0.3-0.3,0.5-0.7,0.5-1.2v-0.8c0-0.9-0.7-1.6-1.7-1.6h-27.2
	c-0.9,0-1.7,0.7-1.7,1.6v0.8c0,0.4,0.2,0.9,0.5,1.2l1,1C1135.9,462.8,1136.4,463,1136.8,463"/>
<path class="st2" d="M1136.8,506.3h25.1c0.4,0,0.9-0.2,1.2-0.5l1-1.1c0.3-0.3,0.5-0.7,0.5-1.2v-0.8c0-0.9-0.7-1.6-1.7-1.6h-27.2
	c-0.9,0-1.7,0.7-1.7,1.6v0.8c0,0.4,0.2,0.8,0.5,1.2l1,1.1C1135.9,506.1,1136.4,506.3,1136.8,506.3"/>
<path class="st2" d="M1147.6,345l1.8,1.8l1.8-1.8l-1.8-1.8L1147.6,345"/>
<path class="st2" d="M1148.7,343.1l0.7,0.7l0.7-0.7l-0.7-0.7L1148.7,343.1"/>
<path class="st2" d="M1148.7,338.5l0.7,0.7l0.7-0.7l-0.7-0.7L1148.7,338.5"/>
<path class="st2" d="M1149.3,343.1h0.2v-4.2h-0.2V343.1"/>
<path class="st2" d="M1902.6,585.9h13.6l36.4,36.4v12.8h-320.5v-12.8l36.4-36.4h13.6c0,0-92.3-71.5-60.3-168
	c20.6-61.9,81.1-72.6,125-107c18.7-14.6,38.6-29.9,45.5-66.1c6.9,36.2,26.8,51.4,45.5,66.1c43.9,34.3,104.5,45.1,125,107
	C1995,514.5,1902.6,585.9,1902.6,585.9"/>
<path class="st2" d="M1765.8,255.4l26.6,26.6l26.6-26.6l-26.6-26.6L1765.8,255.4"/>
<path class="st2" d="M1782,226.2l10.3,10.3l10.3-10.3l-10.3-10.3L1782,226.2"/>
<path class="st2" d="M1782,158.5l10.3,10.3l10.3-10.3l-10.3-10.3L1782,158.5"/>
<path class="st2" d="M1791,226.2h2.7V163h-2.7V226.2"/>
<path class="st2" d="M1760.7,135.8c16.5,8.4,36.6,1.8,45-14.7c8.4-16.5,1.8-36.6-14.7-45c-4.4-2.2-9.1-3.4-13.8-3.6
	c8.2-1.6,16.9-0.6,24.9,3.4c19,9.6,26.6,32.9,17,51.9s-32.9,26.6-51.9,17c-8-4.1-14-10.5-17.5-18
	C1752.6,130.4,1756.3,133.5,1760.7,135.8"/>
<path class="st2" d="M1655.2,617.3h7.3l19.4,19.4v6.8h-171.1v-6.8l19.4-19.4h7.3c0,0-49.3-38.2-32.2-89.7c11-33,43.3-38.8,66.7-57.1
	c10-7.8,20.6-16,24.3-35.3c3.7,19.3,14.3,27.5,24.3,35.3c23.5,18.3,55.8,24.1,66.7,57.1C1704.4,579.1,1655.2,617.3,1655.2,617.3"/>
<path class="st2" d="M1582.1,440.8l14.2,14.2l14.2-14.2l-14.2-14.2L1582.1,440.8"/>
<path class="st2" d="M1590.8,425.2l5.5,5.5l5.5-5.5l-5.5-5.5L1590.8,425.2"/>
<path class="st2" d="M1594.3,422.8c0,1.1,0.9,2,2,2s2-0.9,2-2c0-1.1-0.9-23.8-2-23.8S1594.3,421.7,1594.3,422.8"/>
<path class="st2" d="M1293.1,635h6.3l16.9,16.9v6h-149.2v-6l16.9-16.9h6.3c0,0-43-33.3-28-78.2c9.6-28.8,37.8-33.8,58.2-49.8
	c8.7-6.8,18-13.9,21.2-30.8c3.2,16.8,12.5,24,21.2,30.8c20.5,16,48.6,21,58.2,49.8C1336.1,601.7,1293.1,635,1293.1,635"/>
<path class="st2" d="M1229.4,481.1l12.4,12.4l12.4-12.4l-12.4-12.4L1229.4,481.1"/>
<path class="st2" d="M1236.9,467.5l4.8,4.8l4.8-4.8l-4.8-4.8L1236.9,467.5"/>
<path class="st2" d="M1240,465.4c0,0.9,0.8,1.7,1.7,1.7c0.9,0,1.7-0.8,1.7-1.7c0-1-0.8-20.7-1.7-20.7
	C1240.8,444.6,1240,464.4,1240,465.4"/>
<path class="st2" d="M1127.3,641.7h4.5l12,12v4.2h-105.7v-4.2l12-12h4.5c0,0-30.4-23.6-19.9-55.4c6.8-20.4,26.7-23.9,41.2-35.3
	c6.2-4.8,12.7-9.9,15-21.8c2.3,11.9,8.8,17,15,21.8c14.5,11.3,34.4,14.9,41.2,35.3C1157.7,618.1,1127.3,641.7,1127.3,641.7"/>
<path class="st2" d="M1082.2,532.7l8.8,8.8l8.8-8.8l-8.8-8.8L1082.2,532.7"/>
<path class="st2" d="M1087.5,523.1l3.4,3.4l3.4-3.4l-3.4-3.4L1087.5,523.1"/>
<path class="st2" d="M1089.7,521.6c0,0.7,0.5,1.2,1.2,1.2s1.2-0.5,1.2-1.2c0-0.7-0.6-14.7-1.2-14.7S1089.7,520.9,1089.7,521.6"/>
<path class="st2" d="M1607.2,709.2h7.3l19.4,19.4v6.8h-171.1v-6.8l19.4-19.4h7.3c0,0-49.3-38.2-32.2-89.7c11-33,43.3-38.8,66.7-57.1
	c10-7.8,20.6-15.9,24.3-35.3c3.7,19.3,14.3,27.5,24.3,35.3c23.5,18.3,55.8,24.1,66.7,57.1C1656.5,671,1607.2,709.2,1607.2,709.2"/>
<path class="st2" d="M1534.1,532.8l14.2,14.2l14.2-14.2l-14.2-14.2L1534.1,532.8"/>
<path class="st2" d="M1542.8,517.1l5.5,5.5l5.5-5.5l-5.5-5.5L1542.8,517.1"/>
<path class="st2" d="M1546.4,514.7c0,1.1,0.9,2,2,2c1.1,0,2-0.9,2-2s-0.9-23.8-2-23.8C1547.2,490.9,1546.4,513.6,1546.4,514.7"/>
<path class="st2" d="M766.4,753.5c22.4-13.8,42.6-8.3,66.7-18.7c31.3-13.5,66.8-43.1,98.2-56.6c2.9-1.3,5.9-2.5,8.9-3.8l47.1-30.9
	h305.8l64.5-42H1478l104.1-8L1690.9,463l278.7,13.2v374.4H671.5C694.5,811.1,727.4,777.4,766.4,753.5"/>
<g>
	<defs>
		<rect id="SVGID_00000122001799358274233120000005675742686040349364_" x="50.1" y="775.6" width="1925.6" height="144.9"/>
	</defs>
	<clipPath id="SVGID_00000038415062682576772910000003494488519805314187_">
		<use xlink:href="#SVGID_00000122001799358274233120000005675742686040349364_"  style="overflow:visible;"/>
	</clipPath>
	<g style="clip-path:url(#SVGID_00000038415062682576772910000003494488519805314187_);">
		<path class="st2" d="M50.1,920.5h1925.6V776.1H50.1V920.5"/>
	</g>
</g>
<path class="st2" d="M973.9,650.8V642h94.6v25.3h-65.1v8.8h-47.3v-25.3H973.9"/>
<g>
	<defs>
		<rect id="SVGID_00000121962818118497918650000006779007743809560731_" x="-12.7" y="369.3" width="1007.1" height="553.8"/>
	</defs>
	<clipPath id="SVGID_00000114778428133639352450000002114772054626856594_">
		<use xlink:href="#SVGID_00000121962818118497918650000006779007743809560731_"  style="overflow:visible;"/>
	</clipPath>
	<g style="clip-path:url(#SVGID_00000114778428133639352450000002114772054626856594_);">
		<path class="st1" d="M699.2,505.4c-2.9-1.4-5-3.6-6.3-6.1c1.1,1.2,2.4,2.3,4,3.1c6,2.8,13.2,0.6,16.2-5c3-5.6,0.6-12.4-5.3-15.3
			c-1.6-0.8-3.3-1.2-5-1.2c2.9-0.5,6.1-0.2,9,1.2c6.9,3.3,9.6,11.2,6.1,17.6c-2,3.7-5.6,6.1-9.6,6.9
			C705.4,507.1,702.2,506.8,699.2,505.4z M-2.3,528.5H3v-6.8c0-0.7-0.5-1.2-1.3-1.5l-1.4-0.5l-1.4,0.5c-0.8,0.3-1.3,0.9-1.3,1.5
			V528.5z M10,528.5h5.3v-6.8c0-0.7-0.5-1.2-1.3-1.5l-1.4-0.5l-1.4,0.5c-0.8,0.3-1.3,0.9-1.3,1.5V528.5z M38.3,454.2H40v-7.7
			c0-0.7-0.2-1.4-0.4-1.8l-0.4-0.6l-0.4,0.6c-0.3,0.3-0.4,1-0.4,1.8V454.2z M42.7,454.2h5.8v-7.7c0-0.7-0.6-1.4-1.4-1.8l-1.5-0.6
			l-1.5,0.6c-0.9,0.3-1.4,1-1.4,1.8V454.2z M51.3,454.2H53v-7.7c0-0.7-0.2-1.4-0.4-1.8l-0.4-0.6l-0.5,0.6c-0.2,0.3-0.4,1-0.4,1.8
			V454.2z M117.3,454.4h2v-9.1c0-0.9-0.2-1.7-0.5-2.1l-0.5-0.7l-0.5,0.7c-0.3,0.4-0.5,1.2-0.5,2.1V454.4z M117.3,501h2v-9.1
			c0-0.9-0.2-1.7-0.5-2.1l-0.5-0.7l-0.5,0.7c-0.3,0.4-0.5,1.2-0.5,2.1V501z M122.5,454.4h6.7v-9.1c0-0.9-0.6-1.7-1.6-2.1l-1.7-0.7
			l-1.7,0.7c-1,0.4-1.6,1.2-1.6,2.1V454.4z M122.5,501h6.7v-9.1c0-0.9-0.6-1.7-1.6-2.1l-1.7-0.7l-1.7,0.7c-1,0.4-1.6,1.2-1.6,2.1
			V501z M132.4,454.4h2v-9.1c0-0.9-0.2-1.7-0.5-2.1l-0.5-0.7l-0.5,0.7c-0.3,0.4-0.5,1.2-0.5,2.1V454.4z M132.4,501h2v-9.1
			c0-0.9-0.2-1.7-0.5-2.1l-0.5-0.7l-0.5,0.7c-0.3,0.4-0.5,1.2-0.5,2.1V501z M317.4,663.5h2.7v-12.2c0-1.2-0.3-2.2-0.7-2.8l-0.7-0.9
			l-0.7,0.9c-0.4,0.5-0.7,1.6-0.7,2.8V663.5z M324.3,663.5h9.1v-12.2c0-1.2-0.8-2.2-2.2-2.8l-2.3-0.9l-2.3,0.9
			c-1.4,0.5-2.2,1.6-2.2,2.8V663.5z M337.7,663.5h2.7v-12.2c0-1.2-0.2-2.2-0.7-2.8l-0.7-0.9l-0.7,0.9c-0.4,0.5-0.7,1.6-0.7,2.8
			V663.5z M343.5,687.4h1.8c-1.5-4.8-2.2-10.1-1.4-15.8h-0.5V687.4z M354.4,534.9h2.7v-12.2c0-1.2-0.3-2.2-0.7-2.8l-0.7-0.9
			l-0.7,0.9c-0.4,0.5-0.7,1.6-0.7,2.8V534.9z M361.3,534.9h9.1v-12.2c0-1.2-0.8-2.2-2.2-2.8l-2.3-0.9l-2.3,0.9
			c-1.4,0.5-2.2,1.6-2.2,2.8V534.9z M374.7,534.9h2.7v-12.2c0-1.2-0.3-2.2-0.7-2.8L376,519l-0.7,0.9c-0.4,0.5-0.7,1.6-0.7,2.8V534.9
			z M431.9,611.8h3.8v-17c0-1.6-0.4-3.1-0.9-3.9l-1-1.3l-1,1.3c-0.6,0.7-0.9,2.2-0.9,3.9V611.8z M441.6,611.8h12.6v-17
			c0-1.6-1.2-3.1-3.1-3.9l-3.2-1.3l-3.3,1.3c-1.9,0.7-3.1,2.2-3.1,3.9V611.8z M460.2,611.8h3.8v-17c0-1.6-0.3-3.1-0.9-3.9l-1-1.3
			l-1,1.3c-0.6,0.7-0.9,2.2-0.9,3.9V611.8z M500.9,631.2h1v-4.3c0-0.4-0.1-0.8-0.2-1l-0.3-0.3l-0.2,0.3c-0.2,0.2-0.2,0.6-0.2,1
			V631.2z M503.3,631.2h3.2v-4.3c0-0.4-0.3-0.8-0.8-1l-0.8-0.3l-0.8,0.3c-0.5,0.2-0.8,0.6-0.8,1V631.2z M508.1,631.2h1v-4.3
			c0-0.4-0.1-0.8-0.2-1l-0.2-0.3l-0.3,0.3c-0.1,0.2-0.2,0.6-0.2,1V631.2z M594.2,679.2l4,3.7h2.8v-14.5c-4,6.7-9.6,10.8-9.6,10.8
			H594.2z M603.7,681.1h2.3v-10.2c0-1-0.2-1.9-0.6-2.3l-0.6-0.8l-0.6,0.8c-0.3,0.4-0.6,1.3-0.6,2.3V681.1z M609.6,681.1h7.6v-10.2
			c0-1-0.7-1.9-1.9-2.3l-2-0.8l-2,0.8c-1.1,0.4-1.8,1.3-1.8,2.3V681.1z M620.9,681.1h2.3v-10.2c0-1-0.2-1.9-0.5-2.3l-0.6-0.8
			l-0.6,0.8c-0.3,0.4-0.6,1.3-0.6,2.3V681.1z M625.3,654.3c-0.3,2.4-1.8,4.4-2.9,5.6h2.9V654.3z M627.2,596.3h1.7v-7.5
			c0-0.7-0.2-1.4-0.4-1.7l-0.4-0.6l-0.4,0.6c-0.3,0.3-0.4,1-0.4,1.7V596.3z M631.5,596.3h5.6v-7.5c0-0.7-0.5-1.4-1.3-1.7l-1.4-0.6
			l-1.4,0.6c-0.8,0.3-1.4,1-1.4,1.7V596.3z M639.7,596.3h1.7v-7.5c0-0.7-0.2-1.4-0.4-1.7l-0.4-0.6l-0.4,0.6c-0.3,0.3-0.4,1-0.4,1.7
			V596.3z M643.3,640.3h10.9c-4.4-6.1-8.3-13.9-9.5-22.8l-0.7,0.6h-0.8V640.3z M674.7,641.9h5.3v-6.8c0-0.6-0.5-1.2-1.3-1.5
			l-1.4-0.5l-1.4,0.5c-0.8,0.3-1.3,0.9-1.3,1.5V641.9z M687.1,641.9h5.3v-6.8c0-0.6-0.5-1.2-1.3-1.5l-1.4-0.5l-1.4,0.5
			c-0.8,0.3-1.3,0.9-1.3,1.5V641.9z M699.5,641.9h5.3v-6.8c0-0.6-0.5-1.2-1.3-1.5l-1.4-0.5l-1.4,0.5c-0.8,0.3-1.3,0.9-1.3,1.5V641.9
			z M711.9,641.9h5.3v-6.8c0-0.6-0.5-1.2-1.3-1.5l-1.4-0.5l-1.4,0.5c-0.8,0.3-1.3,0.9-1.3,1.5V641.9z M724.3,641.9h5.3v-6.8
			c0-0.6-0.5-1.2-1.3-1.5l-1.4-0.5l-1.4,0.5c-0.8,0.3-1.3,0.9-1.3,1.5V641.9z M736.7,641.9h5.3v-6.8c0-0.6-0.5-1.2-1.3-1.5l-1.4-0.5
			l-1.4,0.5c-0.8,0.3-1.3,0.9-1.3,1.5V641.9z M764.9,567.6h1.8v-7.7c0-0.7-0.2-1.4-0.4-1.8l-0.4-0.6l-0.4,0.6
			c-0.3,0.3-0.4,1-0.4,1.8V567.6z M769.4,567.6h5.8v-7.7c0-0.7-0.5-1.4-1.4-1.8l-1.5-0.6l-1.5,0.6c-0.9,0.3-1.4,1-1.4,1.8V567.6z
			 M777.9,567.6h1.7v-7.7c0-0.7-0.2-1.4-0.4-1.8l-0.4-0.6l-0.4,0.6c-0.3,0.3-0.4,1-0.4,1.8V567.6z M844,567.8h2v-9.1
			c0-0.9-0.2-1.7-0.5-2.1L845,556l-0.5,0.7c-0.3,0.4-0.5,1.2-0.5,2.1V567.8z M844,614.4h2v-9.1c0-0.9-0.2-1.7-0.5-2.1l-0.5-0.7
			l-0.5,0.7c-0.3,0.4-0.5,1.2-0.5,2.1V614.4z M849.2,567.8h6.7v-9.1c0-0.9-0.6-1.7-1.6-2.1l-1.7-0.7l-1.7,0.7
			c-1,0.4-1.6,1.2-1.6,2.1V567.8z M849.2,614.4h6.7v-9.1c0-0.9-0.6-1.7-1.6-2.1l-1.7-0.7l-1.7,0.7c-1,0.4-1.6,1.2-1.6,2.1V614.4z
			 M859.1,567.8h2v-9.1c0-0.9-0.2-1.7-0.5-2.1l-0.5-0.7l-0.5,0.7c-0.3,0.4-0.5,1.2-0.5,2.1V567.8z M859.1,614.4h2v-9.1
			c0-0.9-0.2-1.7-0.5-2.1l-0.5-0.7l-0.5,0.7c-0.3,0.4-0.5,1.2-0.5,2.1V614.4z M-1.8,448.4c12.3,9,28.1,13.3,38.1,24.5v-13.6h-0.8
			l-1.5-1.4v-2.3h2.3v-12.9l-1.1-1v-2.1l-0.8-1.4h4.5c-1.3-1.4-3-3.9-1.9-7c1.1-3,4.1-3.5,6.4-5.1c0.7-0.5,1.3-1,1.8-1.8l-0.9-0.8
			l1.2-1.1l-0.3-0.3l0.5-0.4v-2.4l-0.5-0.4l0.5-0.5l0.5,0.5l-0.4,0.4v2.4l0.4,0.4l-0.3,0.3l1.2,1.1l-0.9,0.8
			c0.5,0.8,1.2,1.4,1.8,1.8c2.2,1.7,5.3,2.2,6.4,5.1c1.1,3.1-0.7,5.7-1.9,7h4.5l-0.8,1.4v2.1l-1.1,1v12.9h2.3v2.3l-1.5,1.4H55v28
			c3.5-1.9,7.2-3.6,10.4-5.9c2.2-1.6,4.5-3.3,6-6l-2.9-2.7l3.8-3.6l-1.1-1l1.2-1.2V454l-1.2-1.2l1.7-1.6l1.7,1.6l-1.2,1.2v12.8
			l1.2,1.2l-1.1,1l3.8,3.6l-2.9,2.7c1.6,2.8,3.8,4.4,6,6c7.4,5.4,17.5,7.1,20.9,16.8c5.4,15.2-10.1,26.4-10.1,26.4h2.3l2.4,2.3h8.6
			v7.9h-2.7v3.9h-2.6v15.1c1.2-0.6,2.3-1.3,3.4-2c1.3-0.9,2.6-1.9,3.6-3.6l-1.7-1.6l2.2-2.1l-0.6-0.6l1-1l1,1l-0.6,0.6l2.3,2.1
			l-1.7,1.6c0.9,1.6,2.3,2.6,3.6,3.6c1,0.7,2.1,1.3,3.2,1.9V508h-0.9l-1.8-1.7v-2.7h2.7v-25h-0.9l-1.8-1.7v-2.7h2.7v-13.9h-0.9
			l-1.8-1.7V456h2.7v-15.1l-1.2-1.2v-2.5l-1-1.7h5.3c-1.5-1.6-3.5-4.6-2.2-8.2c1.2-3.5,4.8-4.1,7.4-6c0.8-0.6,1.6-1.2,2.1-2.2l-1-1
			l1.3-1.3l-0.4-0.4l0.5-0.5v-2.8l-0.5-0.5l0.6-0.6l0.6,0.6l-0.5,0.5v2.8l0.5,0.5l-0.4,0.4l1.3,1.3l-1,1c0.6,1,1.4,1.6,2.1,2.2
			c2.6,1.9,6.2,2.5,7.4,6c1.3,3.6-0.8,6.6-2.3,8.2h5.3l-1,1.7v2.5l-1.2,1.2V456h2.7v2.7l-1.8,1.7h-0.9v13.9h2.7v2.7l-1.8,1.7h-0.9
			v25h2.7v2.7l-1.8,1.7h-0.9v34c8.5-10.6,22.9-14.2,33.9-22.3c4.1-3,8.3-6.1,11.2-11.2l-5.3-5l7.1-6.7l-2-1.9l2.1-2
			c0.1-2.6,0.6-12.4,1.1-12.4c0.6,0,1.1,9.8,1.1,12.4l2.1,2l-2,1.9l7.1,6.7l-5.3,5c2.9,5.2,7.2,8.3,11.2,11.2
			c9.6,7,21.7,10.7,30.3,18.5c0.3-0.2,0.5-0.3,0.7-0.5c0.7-0.5,1.4-1,1.8-1.8L231,535l1.2-1.1l-0.3-0.3l0.5-0.4v-2.4l-0.5-0.4
			l0.5-0.5l0.5,0.5l-0.5,0.4v2.4l0.5,0.4l-0.3,0.3l1.2,1.1l-0.9,0.8c0.5,0.8,1.2,1.4,1.8,1.8c2.2,1.7,5.3,2.2,6.3,5.1
			c1.1,3.1-0.7,5.7-1.9,7h4.5l-0.8,1.4v1.2c0.6-0.3,1.1-0.7,1.6-1.1c1.7-1.2,3.4-2.5,4.7-4.6l-2.2-2.1l2.9-2.8l-0.8-0.8l0.9-0.8
			c0-1.1,0.2-5.1,0.5-5.1c0.2,0,0.4,4.1,0.5,5.1l0.9,0.8l-0.8,0.8l2.9,2.8l-2.2,2.1c1.2,2.1,3,3.4,4.7,4.6c3.6,2.6,8.1,4.1,11.5,6.8
			v25l0.1,0.1l-0.1,0.1v12.8l0.1,0.1l-0.1,0.1v1.6l2.4,2.3l-2.4,2.3v0.1c1.3,2.4,3.3,3.8,5.1,5.1c6.3,4.6,15,6.1,18,14.5
			c2.7,7.6-0.7,14.1-4,18.1H298v7.9h-2.7v3.9h-2.6v27.6c2.1-1.6,4.8-2.5,7-4.1c1-0.7,2.1-1.5,2.8-2.8l-1.3-1.3l1.8-1.7l-0.5-0.5
			l0.8-0.8l0.8,0.8l-0.5,0.5l1.8,1.7l-1.3,1.3c0.7,1.3,1.8,2.1,2.8,2.8c2.4,1.7,5.4,2.7,7.5,4.6v-8.6H313l-2.4-2.3v-3.6h3.6v-20.4
			l-1.7-1.6v-3.3l-1.3-2.3h7.1c-2-2.1-4.7-6.2-3-11.1c1.6-4.7,6.5-5.5,10-8.1c1-0.8,2.1-1.6,2.9-2.9l-1.4-1.3l1.8-1.7l-0.5-0.5
			l0.7-0.7v-3.8l-0.7-0.7l0.8-0.8l0.8,0.8l-0.7,0.7v3.8l0.7,0.7l-0.5,0.5l1.8,1.7l-1.4,1.3c0.7,1.3,1.8,2.1,2.9,2.9
			c3.5,2.6,8.3,3.4,10,8.1c1.7,4.9-1.1,8.9-3,11.1h7.1l-1.3,2.3v3.3l-1.7,1.6v20.4h1.8c0.2-0.4,0.3-0.9,0.4-1.3
			c1.3-3.8,3.2-6.9,5.5-9.6v-84.4H350l-2.4-2.3v-3.6h3.7V543H350l-2.4-2.3v-3.6h3.7v-20.4l-1.7-1.6v-3.3l-1.3-2.3h7.1
			c-2-2.1-4.7-6.2-3-11.1c1.6-4.7,6.5-5.5,10-8.1c1-0.8,2.1-1.6,2.9-2.9l-1.4-1.3l1.8-1.7l-0.5-0.5l0.7-0.7v-3.8l-0.7-0.7l0.8-0.8
			l0.8,0.8l-0.7,0.7v3.8l0.7,0.7l-0.5,0.5l1.8,1.7l-0.1,0.1l-1.3,1.2c0.8,1.3,1.8,2.1,2.9,2.9c3.5,2.6,8.3,3.4,10,8.1
			c1.7,4.9-1,8.9-3,11.1h7.1l-1.3,2.3v3.3l-1.7,1.6v20.4h3.7v3.6l-2.4,2.3h-1.3v21.6h3.7v3.6l-2.4,2.3h-1.3v65.4
			c1.4-0.9,2.8-1.8,4.2-2.8c4.1-3,8.3-6.1,11.2-11.2l-5.3-5l7.1-6.7l-2-1.9l2.1-2c0.1-2.6,0.6-12.4,1.1-12.4c0.6,0,1,9.8,1.1,12.4
			l2.1,2l-2,1.9l7.1,6.7l-5.3,5c2.9,5.2,7.2,8.3,11.2,11.2c4.5,3.3,9.5,5.8,14.5,8.4v-18.4h-1.7l-3.3-3.2v-5h5.1v-28.4l-2.3-2.2
			v-4.6l-1.8-3.2h9.9c-2.8-3-6.6-8.6-4.2-15.4c2.3-6.5,9-7.7,13.9-11.3c1.4-1.1,2.9-2.2,4-4l-1.9-1.8l2.5-2.4l-0.7-0.7l1-0.9v-5.2
			l-1-0.9l1.2-1.1l1.2,1.1l-1,0.9v5.2l1,0.9l-0.7,0.7l2.5,2.4l-1.9,1.8c1.1,1.9,2.6,3,4,4c4.9,3.6,11.6,4.8,13.9,11.3
			c2.4,6.8-1.4,12.5-4.2,15.4h9.9l-1.8,3.2v4.6l-2.3,2.2v28.4h5.1v5l-3.3,3.2h-1.7v30.1h5.1v0.1c1.4-1,2.7-2.1,3.7-3.9l-2.1-2
			l2.8-2.6l-0.8-0.7l1.2-1.2l1.3,1.2l-0.8,0.7l2.8,2.6l-2.1,2c1.2,2,2.8,3.2,4.4,4.4c5.4,3.9,12.7,5.2,15.3,12.3c0.3,1,0.6,2,0.7,3
			v-25.3h-0.4l-0.9-0.8v-1.3h1.3V634h-0.4l-0.9-0.8v-1.3h1.3v-7l-0.6-0.5l-0.1-1.2l0.2,0l-0.6-1h2.5c-0.7-0.8-1.7-2.2-1.1-3.9
			c0.6-1.7,2.3-1.9,3.5-2.9c0.4-0.3,0.7-0.6,1-1l-0.5-0.4l0.6-0.6l-0.2-0.2l0.2-0.2v-1.3l-0.2-0.2l0.3-0.3l0.3,0.3l-0.2,0.2v1.3
			l0.2,0.2l-0.2,0.2l0.6,0.6l-0.5,0.4c0.3,0.5,0.7,0.8,1,1c1.2,0.9,3,1.2,3.5,2.9c0.6,1.7-0.4,3.2-1.1,3.9h2.5l-0.5,0.9l0,0.8
			l-0.6,0.6v7.4h1.3v1.3l-0.8,0.8h-0.4v7.6h1.3v1.3l-0.8,0.8h-0.4v22.7c0.2-0.1,0.3-0.2,0.5-0.3c3.6-2.7,7.4-5.4,10-10.1l-4.8-4.5
			l6.3-6l-1.8-1.7l1.9-1.8c0.1-2.3,0.5-11.1,1-11.1c0.5,0,0.9,8.8,1,11.1l1.9,1.8l-1.8,1.7l6.3,6l-4.8,4.5c2.6,4.6,6.4,7.4,10,10
			c-2.5-5.2-3.8-11.7-1.3-18.9c4.2-11.8,16.4-13.9,25.3-20.4c2.6-1.9,5.4-3.9,7.3-7.3l-3.5-3.3l4.6-4.3l-1.3-1.2l2.1-2l2.1,2
			l-1.3,1.2l4.6,4.3l-3.5,3.3c1.9,3.4,4.6,5.4,7.3,7.3c8.9,6.5,21.2,8.6,25.3,20.4c0.1,0.2,0.1,0.4,0.2,0.6c1.9-1.6,4.4-2.4,6.5-3.9
			c0.9-0.7,1.8-1.3,2.4-2.4l-1.2-1.1l1.5-1.4l-0.4-0.4l0.6-0.6v-3.2l-0.6-0.6l0.7-0.7l0.7,0.7l-0.6,0.6v3.2l0.6,0.6l-0.4,0.4
			l1.5,1.4l-1.1,1.1c0.6,1.1,1.5,1.8,2.4,2.4c2.9,2.2,7,2.9,8.4,6.8c0.2,0.5,0.3,1,0.4,1.6v-34.1h-0.8l-1.5-1.4v-2.2h2.2v-13.2h-0.8
			l-1.5-1.4v-2.2h2.2v-12.1l-1-0.8l-0.1-2.1l0.3,0l-1-1.8h4.3c-1.2-1.3-2.9-3.8-1.8-6.8c1-2.9,4-3.4,6.1-5c0.6-0.5,1.3-1,1.8-1.8
			l-0.8-0.8l1.1-1.1l-0.3-0.3l0.4-0.4v-2.3l-0.4-0.4l0.5-0.5l0.5,0.5l-0.4,0.4v2.3l0.4,0.4l-0.3,0.3l1.1,1.1l-0.8,0.8
			c0.5,0.8,1.1,1.3,1.8,1.8c2.2,1.6,5.1,2.1,6.1,5c1,3-0.6,5.5-1.9,6.8h4.3l-0.9,1.5l0.1,1.4l-1,1.1v12.8h2.2v2.2l-1.5,1.4h-0.8
			v13.2h1.1c-0.3-5.1,0.4-10.6,2.4-16.3c7.4-21,29.3-24.7,45.1-36.3c4.7-3.5,9.6-7,13-13l-6.2-5.8l8.2-7.7l-2.4-2.2l3.2-3.1v-16.9
			l-3.2-3.1l3.7-3.5l3.7,3.5l-3.2,3.1V530l3.2,3.1l-2.3,2.2l8.2,7.7l-6.2,5.8c3.4,6,8.3,9.6,13,13c12.3,9,28.1,13.3,38.1,24.5v-13.6
			h-0.8l-1.5-1.4V569h2.3v-12.9l-1.1-1V553l-0.8-1.4h4.5c-1.3-1.4-3-3.9-1.9-7c1.1-3,4.1-3.5,6.4-5.1c0.7-0.5,1.4-1,1.8-1.8
			l-0.9-0.8l1.2-1.1l-0.3-0.3l0.5-0.4v-2.4l-0.5-0.4l0.5-0.5l0.5,0.5l-0.5,0.4v2.4l0.5,0.4l-0.3,0.3l1.2,1.1l-0.9,0.8
			c0.5,0.8,1.2,1.4,1.8,1.8c2.2,1.7,5.3,2.2,6.4,5.1c1.1,3.1-0.7,5.7-1.9,7h4.5l-0.8,1.4v2.1l-1.1,1V569h2.3v2.3l-1.5,1.4h-0.8v28
			c3.5-1.9,7.2-3.6,10.4-5.9c2.2-1.6,4.5-3.3,6-6l-2.9-2.7l3.8-3.6l-1.1-1l1.2-1.2v-12.8l-1.2-1.2l1.7-1.6l1.7,1.6l-1.2,1.2v12.8
			l1.2,1.2l-1.1,1l3.8,3.6l-2.9,2.7c1.6,2.8,3.8,4.4,6,6c7.4,5.4,17.5,7.1,20.9,16.8c5.4,15.2-10.1,26.5-10.1,26.5h2.3l2.4,2.3h8.6
			v7.9h-2.7v3.9h-2.6v15.1c1.2-0.6,2.3-1.3,3.4-2c1.3-0.9,2.6-1.9,3.6-3.6l-1.7-1.6l2.2-2.1l-0.6-0.6l1-1l1,1l-0.6,0.6l2.2,2.1
			l-1.7,1.6c0.9,1.6,2.3,2.6,3.5,3.6c1,0.7,2.1,1.3,3.2,1.9v-45.7h-0.9l-1.8-1.7V617h2.7v-25h-0.9l-1.8-1.7v-2.7h2.7v-13.9h-0.9
			l-1.8-1.7v-2.7h2.7v-15.1l-1.2-1.2v-2.5l-1-1.7h5.2c-1.5-1.6-3.5-4.6-2.2-8.2c1.2-3.5,4.8-4.1,7.4-6c0.8-0.6,1.6-1.2,2.1-2.2l-1-1
			l1.3-1.3l-0.4-0.4l0.5-0.5v-2.8l-0.5-0.5l0.6-0.6l0.6,0.6l-0.5,0.5v2.8l0.5,0.5l-0.4,0.4l1.3,1.3l-1,1c0.6,1,1.4,1.6,2.1,2.2
			c2.6,1.9,6.2,2.5,7.4,6c1.3,3.6-0.8,6.6-2.3,8.2h5.3l-1,1.7v2.5l-1.2,1.2v15.1h2.7v2.7l-1.8,1.7h-0.9v13.9h2.7v2.7l-1.8,1.7h-0.9
			v25h2.7v2.7l-1.8,1.7h-0.9v34c8.5-10.6,22.9-14.2,33.9-22.3c4.1-3,8.3-6.1,11.2-11.2l-5.3-5l7.1-6.7l-2-1.9l2.1-2
			c0.1-2.6,0.6-12.4,1.1-12.4c0.6,0,1,9.8,1.1,12.4l2.1,2l-2,1.9l7.1,6.7l-5.3,5c2.9,5.2,7.2,8.3,11.2,11.2
			c13.7,10.1,32.5,13.2,38.9,31.3c0.4,1.2,0.8,2.4,1.1,3.6c1.9-1,3.7-1.9,5.4-3.2c1.7-1.2,3.4-2.5,4.6-4.6l-2.2-2.1l2.9-2.8
			l-0.8-0.8l0.9-0.8c0-1.1,0.2-5.1,0.5-5.1c0.2,0,0.4,4.1,0.5,5.1l0.9,0.8l-0.8,0.8l2.9,2.8l-2.2,2.1c1.2,2.1,3,3.4,4.6,4.6
			c3.6,2.6,8.1,4.1,11.5,6.8v251.5h-1007V528.5h3.3v-6.8c0-0.7-0.5-1.2-1.3-1.5l-1.4-0.5l-0.6,0.2v-81.3
			C-9.6,442.7-5.6,445.6-1.8,448.4z M-12.7,369.8c5.3,3.7,7.2,10.7,4.1,16.4c-1,1.9-2.4,3.4-4.1,4.6v-8.7c0.7-2.2,0.7-4.6,0-6.7
			V369.8z M-12.7,433.4v-7.6l4.1,3.8L-12.7,433.4"/>
	</g>
</g>
<path class="st2" d="M1436.4,408.7l-3.8-7h45.5l-3.8,7V724h-37.8V408.7"/>
<path class="st3" d="M1441.3,415.8l0.9-1.3l0.9,1.3c0.5,0.7,0.9,2.2,0.9,3.8v16.6h-3.5v-16.6C1440.5,418,1440.8,416.5,1441.3,415.8z
	 M1468.4,414.5l0.9,1.3c0.5,0.7,0.9,2.2,0.9,3.8v16.6h-3.5v-16.6c0-1.6,0.3-3.1,0.9-3.8L1468.4,414.5z M1452.3,415.8l3-1.3l3,1.3
	c1.7,0.7,2.8,2.2,2.8,3.8v16.6h-11.7v-16.6C1449.5,418,1450.6,416.5,1452.3,415.8"/>
<path class="st2" d="M1466.7,404h5.1v5.1h-33V404h5.1c0,0-9.5-7.3-6.2-17.3c2.1-6.4,8.3-7.5,12.9-11c1.9-1.5,4-3.1,4.7-6.8
	c0.7,3.7,2.8,5.3,4.7,6.8c4.5,3.5,10.7,4.6,12.9,11C1476.2,396.6,1466.7,404,1466.7,404"/>
<path class="st2" d="M1436.7,411.8h37.3l2.4-2.4v-4.7h-42.1v4.7L1436.7,411.8"/>
<path class="st2" d="M1434.8,447.1h41l3.1-3.1v-4.9h-47.2v4.9L1434.8,447.1"/>
<path class="st2" d="M1434.8,539.1h41l3.1-3.1v-4.9h-47.2v4.9L1434.8,539.1"/>
<path class="st2" d="M1452.6,370l2.7,2.7l2.7-2.7l-2.7-2.7L1452.6,370"/>
<path class="st2" d="M1454.3,367l1.1,1.1l1.1-1.1l-1.1-1.1L1454.3,367"/>
<path class="st2" d="M1454.3,360l1.1,1.1l1.1-1.1l-1.1-1.1L1454.3,360"/>
<path class="st2" d="M1455.2,367h0.3v-6.5h-0.3V367"/>
<path class="st2" d="M1343.5,255.8l-7.2-13.1h85.3l-7.2,13.1v406.8h-70.8V255.8"/>
<path class="st3" d="M1352.6,269.1l1.7-2.4l1.7,2.4c1,1.4,1.6,4.1,1.6,7.1v31.1h-6.6v-31.1C1351,273.2,1351.6,270.5,1352.6,269.1z
	 M1403.4,266.7l1.7,2.4c1,1.4,1.6,4.1,1.6,7.1v31.1h-6.6v-31.1c0-3,0.6-5.7,1.6-7.1L1403.4,266.7z M1373.2,269.1l5.6-2.4l5.6,2.4
	c3.3,1.4,5.3,4.1,5.3,7.1v31.1h-21.9v-31.1C1367.9,273.2,1370,270.5,1373.2,269.1"/>
<path class="st2" d="M1400.1,246.9h9.6v9.5H1348v-9.5h9.6c0,0-17.8-13.8-11.6-32.4c4-11.9,15.6-14,24.1-20.6
	c3.6-2.8,7.4-5.8,8.8-12.7c1.3,7,5.2,9.9,8.8,12.7c8.5,6.6,20.1,8.7,24.1,20.6C1417.9,233.1,1400.1,246.9,1400.1,246.9"/>
<path class="st2" d="M1344,261.5h69.8l4.5-4.5v-8.8h-78.9v8.8L1344,261.5"/>
<path class="st2" d="M1340.4,327.8h76.9l5.8-5.8v-9.1h-88.5v9.1L1340.4,327.8"/>
<path class="st2" d="M1340.4,397.7h76.9l5.8-5.8v-9.1h-88.5v9.1L1340.4,397.7"/>
<path class="st2" d="M1340.4,477.9h76.9l5.8-5.8V463h-88.5v9.1L1340.4,477.9"/>
<path class="st2" d="M1373.7,183.2l5.1,5.1l5.1-5.1l-5.1-5.1L1373.7,183.2"/>
<path class="st2" d="M1376.9,177.6l2,2l2-2l-2-2L1376.9,177.6"/>
<path class="st2" d="M1376.9,164.5l2,2l2-2l-2-2L1376.9,164.5"/>
<path class="st2" d="M1378.6,177.6h0.5v-12.2h-0.5V177.6"/>
<path class="st2" d="M1136.9,369.9l-0.9-1.7c-0.6-1.1,0.2-2.4,1.4-2.4h23.9c1.2,0,2,1.3,1.4,2.4l-1,1.7c-0.1,0.2-0.2,0.5-0.2,0.8
	v299.1h-24.4V370.7C1137.1,370.4,1137.1,370.1,1136.9,369.9"/>
<path class="st3" d="M1140.3,374.9l0.6-0.8l0.6,0.8c0.3,0.5,0.6,1.4,0.6,2.5v10.8h-2.3v-10.8C1139.8,376.3,1140,375.4,1140.3,374.9z
	 M1157.8,374.1l0.6,0.8c0.3,0.5,0.6,1.4,0.6,2.5v10.8h-2.3v-10.8c0-1,0.2-2,0.6-2.5L1157.8,374.1z M1147.4,374.9l1.9-0.8l1.9,0.8
	c1.1,0.5,1.8,1.4,1.8,2.5v9.2c0,0.9-0.7,1.6-1.6,1.6h-4.3c-0.9,0-1.6-0.7-1.6-1.6v-9.2C1145.6,376.3,1146.3,375.4,1147.4,374.9"/>
<path class="st2" d="M1156.7,367.2h1.7c0.9,0,1.6,0.7,1.6,1.7c0,0.9-0.7,1.6-1.6,1.6h-18c-0.9,0-1.6-0.7-1.6-1.6
	c0-0.9,0.7-1.7,1.6-1.7h1.7c0,0-6.1-4.8-4-11.3c1.4-4.1,5.4-4.9,8.3-7.2c0.6-0.5,1.2-1,1.8-1.7c0.6-0.8,1.8-0.8,2.5,0
	c0.5,0.7,1.2,1.2,1.8,1.7c2.9,2.3,6.9,3,8.3,7.2C1162.8,362.4,1156.7,367.2,1156.7,367.2"/>
<path class="st2" d="M1138,372.3h22.7c0.4,0,0.9-0.2,1.2-0.5l0.6-0.6c0.3-0.3,0.5-0.7,0.5-1.2v-0.7c0-0.9-0.7-1.6-1.7-1.6h-23.9
	c-0.9,0-1.7,0.7-1.7,1.6v0.7c0,0.4,0.2,0.8,0.5,1.2l0.6,0.6C1137.1,372.1,1137.6,372.3,1138,372.3"/>
<path class="st2" d="M1136.8,395.3h25.1c0.4,0,0.9-0.2,1.2-0.5l1-1.1c0.3-0.3,0.5-0.7,0.5-1.2v-0.8c0-0.9-0.7-1.6-1.7-1.6h-27.2
	c-0.9,0-1.7,0.7-1.7,1.6v0.8c0,0.4,0.2,0.9,0.5,1.2l1,1.1C1135.9,395.1,1136.4,395.3,1136.8,395.3"/>
<path class="st2" d="M1136.8,419.6h25.1c0.4,0,0.9-0.2,1.2-0.5l1-1.1c0.3-0.3,0.5-0.7,0.5-1.2v-0.8c0-0.9-0.7-1.7-1.7-1.7h-27.2
	c-0.9,0-1.7,0.7-1.7,1.7v0.8c0,0.4,0.2,0.9,0.5,1.2l1,1.1C1135.9,419.4,1136.4,419.6,1136.8,419.6"/>
<path class="st2" d="M1136.8,463h25.1c0.4,0,0.9-0.2,1.2-0.5l1-1c0.3-0.3,0.5-0.7,0.5-1.2v-0.8c0-0.9-0.7-1.6-1.7-1.6h-27.2
	c-0.9,0-1.7,0.7-1.7,1.6v0.8c0,0.4,0.2,0.9,0.5,1.2l1,1C1135.9,462.8,1136.4,463,1136.8,463"/>
<path class="st2" d="M1136.8,506.3h25.1c0.4,0,0.9-0.2,1.2-0.5l1-1.1c0.3-0.3,0.5-0.7,0.5-1.2v-0.8c0-0.9-0.7-1.6-1.7-1.6h-27.2
	c-0.9,0-1.7,0.7-1.7,1.6v0.8c0,0.4,0.2,0.8,0.5,1.2l1,1.1C1135.9,506.1,1136.4,506.3,1136.8,506.3"/>
<path class="st2" d="M1147.6,345l1.8,1.8l1.8-1.8l-1.8-1.8L1147.6,345"/>
<path class="st2" d="M1148.7,343.1l0.7,0.7l0.7-0.7l-0.7-0.7L1148.7,343.1"/>
<path class="st2" d="M1148.7,338.5l0.7,0.7l0.7-0.7l-0.7-0.7L1148.7,338.5"/>
<path class="st2" d="M1149.3,343.1h0.2v-4.2h-0.2V343.1"/>
<path class="st2" d="M1902.6,585.9h13.6l36.4,36.4v12.8h-320.5v-12.8l36.4-36.4h13.6c0,0-92.3-71.5-60.3-168
	c20.6-61.9,81.1-72.6,125-107c18.7-14.6,38.6-29.9,45.5-66.1c6.9,36.2,26.8,51.4,45.5,66.1c43.9,34.3,104.5,45.1,125,107
	C1995,514.5,1902.6,585.9,1902.6,585.9"/>
<path class="st2" d="M1765.8,255.4l26.6,26.6l26.6-26.6l-26.6-26.6L1765.8,255.4"/>
<path class="st2" d="M1782,226.2l10.3,10.3l10.3-10.3l-10.3-10.3L1782,226.2"/>
<path class="st2" d="M1782,158.5l10.3,10.3l10.3-10.3l-10.3-10.3L1782,158.5"/>
<path class="st2" d="M1791,226.2h2.7V163h-2.7V226.2"/>
<path class="st2" d="M1760.7,135.8c16.5,8.4,36.6,1.8,45-14.7c8.4-16.5,1.8-36.6-14.7-45c-4.4-2.2-9.1-3.4-13.8-3.6
	c8.2-1.6,16.9-0.6,24.9,3.4c19,9.6,26.6,32.9,17,51.9s-32.9,26.6-51.9,17c-8-4.1-14-10.5-17.5-18
	C1752.6,130.4,1756.3,133.5,1760.7,135.8"/>
<path class="st2" d="M1655.2,617.3h7.3l19.4,19.4v6.8h-171.1v-6.8l19.4-19.4h7.3c0,0-49.3-38.2-32.2-89.7c11-33,43.3-38.8,66.7-57.1
	c10-7.8,20.6-16,24.3-35.3c3.7,19.3,14.3,27.5,24.3,35.3c23.5,18.3,55.8,24.1,66.7,57.1C1704.4,579.1,1655.2,617.3,1655.2,617.3"/>
<path class="st2" d="M1582.1,440.8l14.2,14.2l14.2-14.2l-14.2-14.2L1582.1,440.8"/>
<path class="st2" d="M1590.8,425.2l5.5,5.5l5.5-5.5l-5.5-5.5L1590.8,425.2"/>
<path class="st2" d="M1594.3,422.8c0,1.1,0.9,2,2,2s2-0.9,2-2c0-1.1-0.9-23.8-2-23.8S1594.3,421.7,1594.3,422.8"/>
<path class="st2" d="M1293.1,635h6.3l16.9,16.9v6h-149.2v-6l16.9-16.9h6.3c0,0-43-33.3-28-78.2c9.6-28.8,37.8-33.8,58.2-49.8
	c8.7-6.8,18-13.9,21.2-30.8c3.2,16.8,12.5,24,21.2,30.8c20.5,16,48.6,21,58.2,49.8C1336.1,601.7,1293.1,635,1293.1,635"/>
<path class="st2" d="M1229.4,481.1l12.4,12.4l12.4-12.4l-12.4-12.4L1229.4,481.1"/>
<path class="st2" d="M1236.9,467.5l4.8,4.8l4.8-4.8l-4.8-4.8L1236.9,467.5"/>
<path class="st2" d="M1240,465.4c0,0.9,0.8,1.7,1.7,1.7c0.9,0,1.7-0.8,1.7-1.7c0-1-0.8-20.7-1.7-20.7
	C1240.8,444.6,1240,464.4,1240,465.4"/>
<path class="st2" d="M1127.3,641.7h4.5l12,12v4.2h-105.7v-4.2l12-12h4.5c0,0-30.4-23.6-19.9-55.4c6.8-20.4,26.7-23.9,41.2-35.3
	c6.2-4.8,12.7-9.9,15-21.8c2.3,11.9,8.8,17,15,21.8c14.5,11.3,34.4,14.9,41.2,35.3C1157.7,618.1,1127.3,641.7,1127.3,641.7"/>
<path class="st2" d="M1082.2,532.7l8.8,8.8l8.8-8.8l-8.8-8.8L1082.2,532.7"/>
<path class="st2" d="M1087.5,523.1l3.4,3.4l3.4-3.4l-3.4-3.4L1087.5,523.1"/>
<path class="st2" d="M1089.7,521.6c0,0.7,0.5,1.2,1.2,1.2s1.2-0.5,1.2-1.2c0-0.7-0.6-14.7-1.2-14.7S1089.7,520.9,1089.7,521.6"/>
<path class="st2" d="M1607.2,709.2h7.3l19.4,19.4v6.8h-171.1v-6.8l19.4-19.4h7.3c0,0-49.3-38.2-32.2-89.7c11-33,43.3-38.8,66.7-57.1
	c10-7.8,20.6-15.9,24.3-35.3c3.7,19.3,14.3,27.5,24.3,35.3c23.5,18.3,55.8,24.1,66.7,57.1C1656.5,671,1607.2,709.2,1607.2,709.2"/>
<path class="st2" d="M1534.1,532.8l14.2,14.2l14.2-14.2l-14.2-14.2L1534.1,532.8"/>
<path class="st2" d="M1542.8,517.1l5.5,5.5l5.5-5.5l-5.5-5.5L1542.8,517.1"/>
<path class="st2" d="M1546.4,514.7c0,1.1,0.9,2,2,2c1.1,0,2-0.9,2-2s-0.9-23.8-2-23.8C1547.2,490.9,1546.4,513.6,1546.4,514.7"/>
<path class="st2" d="M766.4,753.5c22.4-13.8,42.6-8.3,66.7-18.7c31.3-13.5,66.8-43.1,98.2-56.6c2.9-1.3,5.9-2.5,8.9-3.8l47.1-30.9
	h305.8l64.5-42H1478l104.1-8L1690.9,463l278.7,13.2v374.4H671.5C694.5,811.1,727.4,777.4,766.4,753.5"/>
<g>
	<defs>
		<rect id="SVGID_00000047777659243967899510000009671483807175186581_" x="-5.7" y="773.1" width="1953.8" height="144.9"/>
	</defs>
	<clipPath id="SVGID_00000176750992679096606810000012092082445783457161_">
		<use xlink:href="#SVGID_00000047777659243967899510000009671483807175186581_"  style="overflow:visible;"/>
	</clipPath>
	<g style="clip-path:url(#SVGID_00000176750992679096606810000012092082445783457161_);">
		<path class="st2" d="M-5.7,918h1953.7V773.7H-5.7V918"/>
	</g>
</g>
<path class="st2" d="M973.9,650.8V642h94.6v25.3h-65.1v8.8h-47.3v-25.3H973.9"/>
</svg>
